# xmcd
#
# Track frame offsets:
# 150
# 19970
# 41692
# 59374
# 82810
# 101462
# 116701
# 133756
# 148572
# 166280
# 181831
# 205297
#
# Disc length: 3080 seconds
#
# Revision: 0
# Processed by: cddbd v1.5.2PL0 Copyright (c) Steve Scherf et al.
# Submitted via: Axialis_AX_CDPlayer 2.6
#
DISCID=a20c060c
DTITLE=Montgomery Gentry - Carrying On
DYEAR=1900
DGENRE=
TTITLE0=She Couldn't Change Me
TTITLE1=My Father's Son
TTITLE2=The Fine Line
TTITLE3=Cold One Comin' On
TTITLE4=While The World Goes Down The Drain
TTITLE5=Hellbent On Saving Me
TTITLE6=Carrying On
TTITLE7=Ramblin' Man
TTITLE8=Black Jack Fletcher And Mississippi Sam
TTITLE9=Lucky To Be Here
TTITLE10=Too Hard To Handle...Too Free To Hold
TTITLE11=Tried And True
EXTD=
EXTT0=
EXTT1=
EXTT2=
EXTT3=
EXTT4=
EXTT5=
EXTT6=
EXTT7=
EXTT8=
EXTT9=
EXTT10=
EXTT11=
PLAYORDER=
